<svg viewBox="0 0 24 22" version="1.1" xmlns="http://www.w3.org/2000/svg" xmlns:xlink="http://www.w3.org/1999/xlink">
  <g stroke="none" stroke-width="1" fill="none" fill-rule="nonzero">
    <path d="M21.943892,8.09929304 L10.777376,8.09929304 C9.82922261,8.09639722 9.00445507,8.74819215 8.7884814,9.67174587 L8.78363896,9.6897598 L6.08580838,19.2152634 C5.91670969,19.9271048 5.52970041,20.5686338 4.97882231,21.0505553 L19.826188,21.0505553 C20.8014592,21.0486183 21.640173,20.3594396 21.8311596,19.4029571 L21.8346462,19.3862991 L23.9506069,10.5309917 C24.0662449,9.93188276 23.9083807,9.31262916 23.5202092,8.84213583 C23.131844,8.37164256 22.5540419,8.09929304 21.943892,8.09929304 Z"></path>
    <path d="M14.1783316,3.31030473 C15.3443956,3.31204805 16.343298,4.14514463 16.5540419,5.29203253 L16.6971849,5.29203253 C17.8401989,5.2937758 18.8203125,6.10847107 19.0304752,7.23211517 L19.4424716,7.23211517 L19.4424716,4.6532154 C19.440922,3.44085744 18.458484,2.45880684 17.2463197,2.45725726 L12.9491219,2.45725726 C12.2469654,2.45725726 11.5680527,2.20331871 11.0382877,1.74212291 L9.66884038,0.550296992 C9.29674587,0.226627041 8.82024793,0.048230876 8.32689823,0.048230876 L2.19576446,0.048230876 C0.983600231,0.0497804628 0.00135589091,1.03183111 0,2.24418902 L0,18.3926266 C0.000387396694,19.3283832 0.492962281,20.194796 1.29642302,20.6741994 L1.29642302,6.2210098 C1.29836003,4.61428205 2.6004003,3.31204805 4.2071281,3.31030473 L14.1783316,3.31030473 Z"></path>
    <path d="M5.24922521,18.9874741 L7.94705579,9.46197055 C8.25852273,8.15179493 9.43059144,7.22804752 10.777376,7.23211517 L18.1400439,7.23211517 C17.9478952,6.59581612 17.3617639,6.15980112 16.6969912,6.15902633 L6.68491736,6.15902633 C5.55681818,6.16018855 4.6423683,7.07444474 4.64120608,8.2027376 L4.64120608,20.1653538 C4.93582126,19.8352919 5.14307851,19.4364669 5.24438276,19.0056818 L5.24922521,18.9874741 Z"></path>
    <path d="M15.6643854,5.29203253 C15.4708807,4.63190856 14.8659607,4.17807332 14.1781379,4.17729858 L4.20732179,4.17729858 C3.07902893,4.17846074 2.16496641,5.09271694 2.16361051,6.2210098 L2.16361051,21.0036803 C2.70770921,21.1073089 3.27059658,21.0383523 3.77382491,20.806689 L3.77382491,8.2027376 C3.77556818,6.5960098 5.07780218,5.2937758 6.68452998,5.29203253 L15.6643854,5.29203253 Z"></path>
  </g>
</svg>
