<svg viewBox="0 0 24 24" version="1.1" xmlns="http://www.w3.org/2000/svg" xmlns:xlink="http://www.w3.org/1999/xlink">
  <g stroke="none" stroke-width="1" fill="none" fill-rule="nonzero">
    <path d="M0,18 L0,23 C0,23.552 0.448,24 1,24 L6,24 C6.552,24 7,23.552 7,23 L7,18 C7,17.448 6.552,17 6,17 L1,17 C0.448,17 0,17.448 0,18 Z"></path>
    <path d="M7,8.5 L7,7 L7,1 C7,0.448 6.552,0 6,0 L1,0 C0.448,0 0,0.448 0,1 L0,14.5 C0,15.052 0.448,15.5 1,15.5 L6,15.5 C6.552,15.5 7,15.052 7,14.5 L7,8.5 Z"></path>
    <path d="M15.5,14.5 L15.5,9.5 C15.5,8.948 15.052,8.5 14.5,8.5 L9.5,8.5 C8.948,8.5 8.5,8.948 8.5,9.5 L8.5,14.5 C8.5,15.052 8.948,15.5 9.5,15.5 L14.5,15.5 C15.052,15.5 15.5,15.052 15.5,14.5 Z"></path>
    <path d="M15.5,6 L15.5,1 C15.5,0.448 15.052,0 14.5,0 L9.5,0 C8.948,0 8.5,0.448 8.5,1 L8.5,6 C8.5,6.552 8.948,7 9.5,7 L14.5,7 C15.052,7 15.5,6.552 15.5,6 Z"></path>
    <path d="M18,24 L23,24 C23.552,24 24,23.552 24,23 L24,18 C24,17.448 23.552,17 23,17 L18,17 C17.448,17 17,17.448 17,18 L17,23 C17,23.552 17.448,24 18,24 Z"></path>
    <path d="M8.5,18 L8.5,23 C8.5,23.552 8.948,24 9.5,24 L14.5,24 C15.052,24 15.5,23.552 15.5,23 L15.5,18 C15.5,17.448 15.052,17 14.5,17 L9.5,17 C8.948,17 8.5,17.448 8.5,18 Z"></path>
    <path d="M23,0 L18,0 C17.448,0 17,0.448 17,1 L17,6 C17,6.552 17.448,7 18,7 L23,7 C23.552,7 24,6.552 24,6 L24,1 C24,0.448 23.552,0 23,0 Z"></path>
    <path d="M18,15.5 L23,15.5 C23.552,15.5 24,15.052 24,14.5 L24,9.5 C24,8.948 23.552,8.5 23,8.5 L18,8.5 C17.448,8.5 17,8.948 17,9.5 L17,14.5 C17,15.052 17.448,15.5 18,15.5 Z"></path>
  </g>
</svg>
