<svg viewBox="0 0 25 22" version="1.1" xmlns="http://www.w3.org/2000/svg" xmlns:xlink="http://www.w3.org/1999/xlink">
  <g stroke="none" stroke-width="1" fill="none" fill-rule="evenodd">
    <g transform="translate(0.256000, 0.606933)" fill-rule="nonzero">
      <polygon id="Path" points="10.2112 2.3056 5.6 6.66133815e-16 0.9888 2.3056 5.6 4.6112"></polygon>
      <polygon id="Path" points="17.6 13.2 12.8 15.6 12.8 20.2112 17.6 17.8112"></polygon>
      <polygon id="Path" points="13.7888 2.3056 18.4 4.6112 23.0112 2.3056 18.4 6.66133815e-16"></polygon>
      <polygon id="Path" points="19.2 10.6112 24 8.2112 24 3.6 19.2 6"></polygon>
      <polygon id="Path" points="11.2 3.6 6.4 6 6.4 10.6112 11.2 8.2112"></polygon>
      <polygon id="Path" points="17.6 6 12.8 3.6 12.8 8.2112 17.6 10.6112"></polygon>
      <polygon id="Path" points="16.6104 11.9056 12 9.6 7.3888 11.9056 12 14.2112"></polygon>
      <polygon id="Path" points="6.4 17.8112 11.2 20.2112 11.2 15.6 6.4 13.2"></polygon>
      <polygon id="Path" points="1.33226763e-15 8.2112 4.8 10.6112 4.8 6 2.7533531e-15 3.6"></polygon>
    </g>
  </g>
</svg>
