<svg viewBox="0 0 24 20" version="1.1" xmlns="http://www.w3.org/2000/svg" xmlns:xlink="http://www.w3.org/1999/xlink">
  <g stroke="none" stroke-width="1" fill="none" fill-rule="nonzero">
    <path d="M19.667027,2.70032432 L1.1747027,2.70032432 C0.526702703,2.70032432 0,3.22637838 0,3.87567568 L0,18.2594595 C0,18.9068108 0.526702703,19.4341622 1.1747027,19.4341622 L19.667027,19.4341622 C20.3156757,19.4341622 20.8423784,18.9074595 20.8423784,18.2594595 L20.8423784,3.87502703 C20.8404324,3.22508108 20.3156757,2.70032432 19.667027,2.70032432 Z M18.492973,5.04908108 L18.492973,15.636973 L15.8069189,12.3768649 C15.7083243,12.2568649 15.5331892,12.2354595 15.408,12.3275676 L12.2841081,14.6088649 L6.91978378,9.39048649 C6.85751351,9.32951351 6.77124324,9.30291892 6.68756757,9.30810811 C6.60064865,9.31589189 6.52345946,9.36194595 6.47416216,9.432 L2.34940541,15.3340541 L2.34940541,5.04908108 L18.492973,5.04908108 L18.492973,5.04908108 Z M11.4486486,9.45275676 C11.4486486,8.4 12.3042162,7.54378378 13.3556757,7.54378378 C14.4084324,7.54378378 15.2633514,8.4 15.2633514,9.45275676 C15.2633514,10.5029189 14.4084324,11.3604324 13.3556757,11.3604324 C12.3042162,11.3604324 11.4486486,10.5022703 11.4486486,9.45275676 Z M22.5541622,15.1757838 C22.0676757,15.1757838 21.6745946,14.7814054 21.6745946,14.2962162 L21.6745946,1.86810811 L3.37686486,1.86810811 C2.89037838,1.86810811 2.49664865,1.47502703 2.49664865,0.988540541 C2.49664865,0.502702703 2.89037838,0.108972973 3.37686486,0.108972973 L22.5541622,0.108972973 C23.0406486,0.108972973 23.4343792,0.502702703 23.4343792,0.988540541 L23.4343792,14.2968649 C23.435027,14.7814054 23.0406486,15.1757838 22.5541622,15.1757838 Z"></path>
  </g>
</svg>
