<svg viewBox="0 0 24 24" version="1.1" xmlns="http://www.w3.org/2000/svg" xmlns:xlink="http://www.w3.org/1999/xlink">
  <g stroke="none" stroke-width="1" fill="none" fill-rule="nonzero">
    <path d="M24,13.98275 L24,10.0171875 L20.7468125,9.3703125 C20.5640625,8.7796875 20.339,8.2171875 20.0436875,7.66875 L21.8578125,4.9546875 L19.0453125,2.1421875 L16.33125,3.9563125 C15.7828125,3.661 15.22025,3.4359375 14.6296875,3.2531875 L13.98275,0 L10.0171875,0 L9.3703125,3.2531875 C8.7796875,3.4359375 8.2171875,3.661 7.66875,3.9563125 L4.9546875,2.1421875 L2.1421875,4.9546875 L3.9563125,7.66875 C3.661,8.2171875 3.4359375,8.77975 3.2531875,9.3703125 L0,10.01725 L0,13.9828125 L3.2531875,14.6296875 C3.4359375,15.2203125 3.661,15.7828125 3.9563125,16.33125 L2.1421875,19.0453125 L4.9546875,21.8578125 L7.66875,20.0436875 C8.2171875,20.339 8.77975,20.5640625 9.3703125,20.7468125 L10.01725,24 L13.9828125,24 L14.6296875,20.7468125 C15.2203125,20.5640625 15.7828125,20.339 16.33125,20.0436875 L19.0453125,21.8578125 L21.8578125,19.0453125 L20.0436875,16.33125 C20.339,15.7828125 20.5640625,15.22025 20.7468125,14.6296875 L24,13.98275 Z M12,16.921875 C9.2859375,16.921875 7.078125,14.7140625 7.078125,12 C7.078125,9.2859375 9.2859375,7.078125 12,7.078125 C14.7140625,7.078125 16.921875,9.2859375 16.921875,12 C16.921875,14.7140625 14.7140625,16.921875 12,16.921875 Z"></path>
  </g>
</svg>
