<svg viewBox="0 0 24 28" version="1.1" xmlns="http://www.w3.org/2000/svg" xmlns:xlink="http://www.w3.org/1999/xlink">
  <g stroke="none" stroke-width="1" fill="none" fill-rule="evenodd">
    <path d="M8.1799054,3.82024435 C8.1799054,1.71049906 9.89040446,0 12.0004493,0 C14.109895,0 15.8203941,1.71049906 15.8203941,3.82024435 C15.8203941,5.92998964 14.109895,7.6404887 12.0004493,7.6404887 C9.89040446,7.6404887 8.1799054,5.92998964 8.1799054,3.82024435 Z M13.8361433,10.2432267 C13.87478,9.41148869 14.1608117,8.64144963 14.6217569,8.00469232 C14.2982866,7.93700316 13.9643334,7.90106201 13.621395,7.90106201 L10.3798031,7.90106201 C10.0380627,7.90106201 9.70410952,7.93670365 9.38243626,8.00379379 C9.8727334,8.68397998 10.1662528,9.51422046 10.1710449,10.4133481 C10.7664699,10.0853852 11.4502502,9.89879073 12.1768604,9.89879073 C12.7662952,9.89879073 13.3272766,10.0215896 13.8361433,10.2432267 Z M14.483084,10.5858656 C15.5927668,11.2816263 16.3708927,12.4589984 16.5125607,13.8256605 C16.9651196,14.0371142 17.4673971,14.1587151 17.9999251,14.1587151 C19.9440416,14.1587151 21.5197614,12.5829953 21.5197614,10.6391783 C21.5197614,8.69506184 19.9440416,7.11934208 17.9999251,7.11934208 C16.0743782,7.11964159 14.5124359,8.66720745 14.483084,10.5858656 Z M12.1768604,17.792964 C14.1209769,17.792964 15.6966967,16.2166452 15.6966967,14.2728282 C15.6966967,12.3293108 14.1206774,10.7532915 12.1768604,10.7532915 C10.2330434,10.7532915 8.6564251,12.3293108 8.6564251,14.2728282 C8.6564251,16.2169448 10.2333429,17.792964 12.1768604,17.792964 Z M13.6699155,18.0325717 L10.6832062,18.0325717 C8.19817549,18.0325717 6.176486,20.0545607 6.176486,22.5392919 L6.176486,26.1921104 L6.1857708,26.2490172 L6.43735882,26.3280878 C8.80887547,27.0687749 10.8692017,27.3161698 12.5650248,27.3161698 C15.8773009,27.3161698 17.7971572,26.3721157 17.9154634,26.3116147 L18.1505784,26.1924099 L18.1757375,26.1924099 L18.1757375,22.5392919 C18.1766358,20.0545607 16.1549463,18.0325717 13.6699155,18.0325717 Z M19.4935793,14.3992213 L16.5299322,14.3992213 C16.4978847,15.5849796 15.9917136,16.6524316 15.1911245,17.4206736 C17.4000075,18.0774981 19.016161,20.1255444 19.016161,22.5449826 L19.016161,23.670839 C21.9423694,23.5633151 23.6286082,22.7339731 23.7397262,22.6785639 L23.9748412,22.559359 L24,22.559359 L24,18.905642 C24,16.4209108 21.9783105,14.3992213 19.4935793,14.3992213 Z M6.00097341,14.1587151 C6.68954587,14.1587151 7.3301968,13.9580437 7.87290811,13.6157043 C8.04542562,12.4904469 8.64863786,11.507157 9.51032684,10.8374537 C9.51392095,10.7715616 9.52021066,10.7062685 9.52021066,10.6397774 C9.52021066,8.69566086 7.94419139,7.1199411 6.00097341,7.1199411 C4.05655739,7.1199411 2.48113714,8.69566086 2.48113714,10.6397774 C2.48083763,12.5832949 4.05655739,14.1587151 6.00097341,14.1587151 Z M9.16169772,17.4206736 C8.36500231,16.6566248 7.86062822,15.5942644 7.82378855,14.4162933 C7.71386854,14.4082066 7.60514657,14.3992213 7.49313,14.3992213 L4.50672025,14.3992213 C2.02168948,14.3992213 0,16.4209108 0,18.905642 L0,22.5584605 L0.00928479615,22.6150678 L0.260872821,22.6941383 C2.1633575,23.2883653 3.86127716,23.5618175 5.3360622,23.6483758 L5.3360622,22.5449826 C5.33666122,20.1255444 6.95251526,18.0774981 9.16169772,17.4206736 Z" fill-rule="nonzero"></path>
  </g>
</svg>
